<?xml version="1.0" encoding="UTF-8"?>
<svg width="1200pt" height="1200pt" version="1.1" viewBox="0 0 1200 1200" xmlns="http://www.w3.org/2000/svg">
 <path d="m37.68 851.28c26.078 43.93 57.477 84.477 93.48 120.72 10.863 42.156 42.566 75.809 84 89.16 5.0195 1.6484 10.152 2.9297 15.359 3.8398h3.2383l5.0391 0.83984h7.4414c10.676 0.71094 21.395 0.10938 31.922-1.8008 20.41-3.8164 39.523-12.73 55.559-25.918l198.36-168.84 66.719 33.48 26.52 64.199-213.96 171c-30.285 23.004-65.484 38.695-102.84 45.84l-10.559 1.8008c-20.398 2.9023-41.074 3.2656-61.562 1.0781-3.3594 0-6.9609-0.83984-10.68-1.4414l-4.1992-0.60156c-3.1211 0-6.8398-1.3203-10.559-2.0391l-3.9609-0.83984v0.003907c-10.109-2.1797-20.055-5.0664-29.762-8.6406-38.422-13.875-72.699-37.27-99.625-67.992-26.926-30.727-45.621-67.777-54.332-107.69-8.5703-39.461-7.043-80.449 4.4375-119.16 2.7461-9.2031 6.0742-18.223 9.9609-27zm1121-470.16c-16.32-17.711-39.273-27.84-63.359-27.961-23.902-0.19141-46.828 9.4922-63.359 26.762l-102.36 106.32-245.64-46.32c-22.742-4.2539-46.152 2.5078-63.121 18.238l-43.199 40.199c-4.6719 4.3711-6.9609 10.719-6.1523 17.062 0.80859 6.3477 4.6133 11.918 10.234 14.977l200.4 108.72-66.121 68.883-93.602-13.441h0.003906c-20.676-3.0469-41.613 3.4922-56.883 17.762l-20.039 18.602c-4.7266 4.4492-6.9844 10.93-6.0547 17.355 0.93359 6.4258 4.9375 11.996 10.734 14.922l129.48 64.801 55.32 133.92c2.5039 6.0078 7.7852 10.414 14.145 11.801 6.3594 1.3867 12.996-0.42188 17.777-4.8438l20.039-18.602v0.003906c15.324-14.203 23.359-34.602 21.84-55.441l-6.7188-96 72-60 93.84 207.84c2.0234 4.3906 5.5742 7.8906 9.9883 9.8555 4.4141 1.9648 9.3945 2.2578 14.012 0.82422 2.6797-0.91016 5.1328-2.3828 7.1992-4.3203l43.559-41.039c16.906-15.762 25.363-38.59 22.801-61.559l-28.32-248.16 113.4-94.32c18.492-15.367 29.844-37.668 31.387-61.664 1.5469-23.996-6.8555-47.566-23.227-65.176zm-460.44-93.121c-10.922 18-1.8008 33.48 6.9609 46.922h-0.003907c2.3281 5.2812 7.2227 8.9883 12.938 9.7969 5.7188 0.80469 11.449-1.4023 15.145-5.8398 8.5195-8.0391 26.879-16.922 34.078-13.078 26.641 14.52 52.559 12 79.801 6.6016 1.1992 0 24 11.398 25.32 11.039 17.281-4.1992 52.68 10.199 62.52-9.9609l23.281-24c19.039-19.605 42.082-34.875 67.559-44.762-49.602-81.648-120.6-148.16-205.31-192.34-84.707-44.18-179.89-64.332-275.23-58.273-95.344 6.0547-187.21 38.09-265.65 92.629-78.434 54.539-140.45 129.51-179.32 216.77-38.871 87.27-53.121 183.51-41.199 278.3 11.922 94.789 49.559 184.51 108.83 259.43l8.5195 10.32 7.4414 8.6406c6.2383 7.0781 12.719 14.16 19.441 20.879l1.6797 2.0391-0.003906 0.003906c20.543 20.773 42.781 39.797 66.48 56.879l88.441-76.801c-30.949-19.391-59.191-42.797-84-69.598h0.60156c36-10.199 73.199-20.52 109.8-30.359 3.6016-0.96094 8.0391 1.5586 12 0.96094 15-2.0391 30.121-2.8789 38.762-19.441h-0.003906c4.5391-6.8359 11.141-12.047 18.84-14.883 13.441-6.1211 36-34.199 33.238-48-1.8008-10.441-6-25.078-13.68-29.039-12.336-6.9062-21.086-18.805-24-32.641-6.3594-18.602-12.84-37.078-19.922-55.32-2.0391-5.1602-5.5195-12-9.8398-13.441l0.003906 0.003906c-5.6172-1.9844-10.559-5.5156-14.254-10.184-3.6953-4.6719-5.9922-10.297-6.625-16.219-5.8789-31.68-24.961-49.441-54.602-60.719-29.641-11.281-48-7.9219-60.719 22.68-4.5078 13.641-15.777 23.957-29.762 27.238-4.7852 1.6562-8.9648 4.707-12 8.7617-24 29.641-4.5586 64.559-11.398 96 0 2.0391 1.4414 4.4414 2.2812 6.7188 3.1211 9 5.7617 18.238 9.7188 26.762 4.625 9.668 4.1328 21.008-1.3203 30.238-6.3594 12.84-12 25.922-18.719 38.879l-0.003906 0.003906c-48.117-82.34-65.988-178.89-50.52-273 1.8633 7.1758 6.0938 13.516 12 18 8.0391 4.8008 14.398 5.6406 18.602-5.1602 4.1992-10.801 10.68-21.359 14.879-32.52 1.4844-5.1758 4.4023-9.8242 8.4141-13.414 4.0156-3.5859 8.9609-5.9688 14.266-6.8672 12.961-2.1602 25.922-4.6797 39.121-5.7617 8.4688-1.3047 17.121-0.69141 25.32 1.8008 22.922 9.3594 37.441 5.2812 50.879-15.719 3.2969-4.375 7.6836-7.8086 12.719-9.9609 18.84-9.1211 38.281-17.16 57.121-26.398 33.207-16.191 69.062-26.273 105.84-29.762 33.238-3.1211 60-19.801 88.801-25.801-9.9805-8.1172-18.715-17.66-25.918-28.32-4.1758-11.078-12.922-19.824-24-24-9.6016-3.6016-18.121-9.9609-27.84-12h-0.003906c-9.2383-1.8516-18.656-2.6562-28.078-2.3984-9.6328 0.42188-19.281-0.14062-28.801-1.6797-9.7188-2.5195-18.238-9.4805-27.84-12-18.961-5.8789-24-20.398-26.398-38.52l93.719-33.121c29.762-10.559 47.16-2.6406 57.238 27.238h0.003906c1.8477 7.875 2.8945 15.918 3.1172 24l6.9609-3.3594 22.68-1.4414v0.003906c3.3828-5.8555 5.1602-12.5 5.1602-19.262 0-6.7617-1.7773-13.402-5.1602-19.258-2.2148-3.6055-5.1094-6.7422-8.5195-9.2422-7.7891-5.8281-14.016-13.496-18.121-22.32-2.2695-5.8047-5.9375-10.957-10.68-15 22.359 0.042969 44.672 1.9297 66.719 5.6406 22.32 9.1211 38.762 22.199 42.719 48 0 2.5195 4.6797 4.8008 7.5586 6.7188 27.48 17.16 33.359 36.84 19.559 66.48h0.007813c-5.2695 11.898-11.16 23.516-17.641 34.801z" fill="#fff"/>
</svg>
